<svg width="1440" height="480" viewBox="0 0 1440 480" fill="none" xmlns="http://www.w3.org/2000/svg">
<g clip-path="url(#clip0)">
<rect width="1440" height="480" fill="white"/>
<path d="M1440 0H0V480H1440V0Z" fill="#E5C626"/>
<g clip-path="url(#clip1)">
<path d="M1475 517.507L1466.22 537.133L1465.68 538.313L1449.62 573.919L1449.08 575.313L1432.16 612.957L1431.52 614.351L1415.45 650.064L1414.92 651.243L1400.03 684.383L1399.49 685.455L1385.36 716.985L1384.93 718.058L1378.61 732H-3V288H1282.22L1280.93 309.664L1280.82 310.736L1278.9 341.73L1278.79 342.803L1277.93 357.71L1300.75 376.264L1302.57 377.658L1362.44 426.241L1364.04 427.528L1402.28 458.522L1403.46 459.487L1432.69 483.188L1433.66 484.046L1460.76 505.925L1461.83 506.783L1475 517.507Z" fill="#546DF5" stroke="black" stroke-width="4" stroke-miterlimit="10"/>
<path d="M0 325.458C20.3986 331.242 44.2969 336 82.9942 336C183.987 336 183.987 304 285.08 304C386.073 304 386.073 336 487.066 336C588.059 336 588.059 304 689.152 304C790.145 304 790.145 336 891.238 336C992.231 336 992.231 304 1093.32 304C1194.32 304 1194.32 336 1295.41 336C1372.5 336 1390.8 317.341 1440 308.571" stroke="#011D47" stroke-width="2" stroke-miterlimit="10"/>
<path d="M-1 453.458C19.3986 459.242 43.2969 464 81.9942 464C182.987 464 182.987 432 284.08 432C385.073 432 385.073 464 486.066 464C587.059 464 587.059 432 688.152 432C789.145 432 789.145 464 890.238 464C991.231 464 991.231 432 1092.32 432C1193.32 432 1193.32 464 1294.41 464C1371.5 464 1389.8 445.341 1439 436.571" stroke="#011D47" stroke-width="2" stroke-miterlimit="10"/>
<path d="M-1 421.458C19.3986 427.242 43.2969 432 81.9942 432C182.987 432 182.987 400 284.08 400C385.073 400 385.073 432 486.066 432C587.059 432 587.059 400 688.152 400C789.145 400 789.145 432 890.238 432C991.231 432 991.231 400 1092.32 400C1193.32 400 1193.32 432 1294.41 432C1371.5 432 1389.8 413.341 1439 404.571" stroke="#011D47" stroke-width="2" stroke-miterlimit="10"/>
<path d="M-1 389.458C19.3986 395.242 43.2969 400 81.9942 400C182.987 400 182.987 368 284.08 368C385.073 368 385.073 400 486.066 400C587.059 400 587.059 368 688.152 368C789.145 368 789.145 400 890.238 400C991.231 400 991.231 368 1092.32 368C1193.32 368 1193.32 400 1294.41 400C1371.5 400 1389.8 381.341 1439 372.571" stroke="#011D47" stroke-width="2" stroke-miterlimit="10"/>
<path d="M-1 357.458C19.3986 363.242 43.2969 368 81.9942 368C182.987 368 182.987 336 284.08 336C385.073 336 385.073 368 486.066 368C587.059 368 587.059 336 688.152 336C789.145 336 789.145 368 890.238 368C991.231 368 991.231 336 1092.32 336C1193.32 336 1193.32 368 1294.41 368C1371.5 368 1389.8 349.341 1439 340.571" stroke="#011D47" stroke-width="2" stroke-miterlimit="10"/>
<path d="M965.5 290.204C965.3 291.406 965 292.608 964.8 293.911L961.9 308.436L956.1 308.736C939.2 314.346 928.8 324.764 928.8 324.764C892.9 336.785 758.8 327.569 742.4 326.367C736.4 319.455 732 312.242 728.7 306.031C727.9 304.429 727.1 302.926 726.4 301.424L738.4 305.13L740.6 308.135C740.6 308.135 890.4 319.355 928.7 306.633C928.7 306.633 939.1 296.215 956 290.605L965.5 290.204Z" fill="#91825E" stroke="black" stroke-width="3" stroke-miterlimit="10"/>
<path d="M961.9 308.436L960.2 317.251C959.9 318.753 959.5 320.156 958.9 321.558L956.1 321.658C939.2 327.268 928.8 337.686 928.8 337.686C898.5 347.804 798.5 342.795 757.9 340.291C751.8 336.184 746.6 331.375 742.3 326.266C758.7 327.468 892.9 336.584 928.7 324.664C928.7 324.664 939.1 314.246 956 308.636L961.9 308.436Z" fill="#5E4B21" stroke="black" stroke-width="3" stroke-miterlimit="10"/>
<path d="M958.9 321.458C957.5 324.664 955.3 327.569 952.4 329.672C937.6 340.691 924.4 346.301 915.3 349.406C900.3 354.515 870.4 348.805 811.2 351.61C798.1 352.211 784.6 353.013 769.2 346.401C765.1 344.598 761.4 342.595 758 340.19C798.5 342.695 898.6 347.603 928.8 337.586C928.8 337.586 939.2 327.168 956.1 321.558L958.9 321.458Z" fill="#453000" stroke="black" stroke-width="3" stroke-miterlimit="10"/>
<path d="M967 288V293.209C967 293.209 966.2 293.51 964.8 294.01C957.5 296.615 934.4 305.33 932.6 312.843C930.4 321.859 773.8 321.057 742.3 312.843L734.8 310.639L734 308.235L728.8 306.031L725 304.428L726.5 301.423L738.5 305.13L740.7 308.135C740.7 308.135 890.5 319.354 928.8 306.632C928.8 306.632 939.2 296.214 956.1 290.605C959.5 289.503 963.1 288.601 967 288Z" fill="#917433" stroke="black" stroke-width="3" stroke-miterlimit="10"/>
</g>
<path d="M234.431 171C265.082 171 289.931 146.152 289.931 115.5C289.931 84.8482 265.082 60 234.431 60C203.779 60 178.931 84.8482 178.931 115.5C178.931 146.152 203.779 171 234.431 171Z" fill="#FEDC2A" stroke="black" stroke-width="4" stroke-miterlimit="10"/>
<g opacity="0.7" clip-path="url(#clip2)">
<path d="M444.158 19.2119C444.075 19.2119 444.075 19.2119 443.993 19.2943C438.885 20.7764 430.071 23.4114 419.279 23.7407L333.274 156.971L444.158 19.2119Z" fill="white"/>
<path d="M288.13 169.569L197.183 110.941C194.547 113.823 191.664 116.541 188.533 119.258L288.13 169.569Z" fill="white"/>
<path d="M469.366 24.2347C468.954 23.4113 468.625 22.5055 468.377 21.6821C466.318 15.9181 459.81 13.2008 454.208 15.5887C452.89 16.1651 451.49 16.7415 450.007 17.2356L341.348 152.195L469.366 24.2347Z" fill="white"/>
<path d="M307.902 153.265L290.19 43.7499C286.483 43.8323 282.364 43.6676 277.998 43.2559L307.902 153.265Z" fill="white"/>
<path d="M378.254 11.2246C377.1 10.4011 375.947 9.49537 374.794 8.50726C371.334 5.62528 366.638 5.29591 362.931 7.27213L324.295 153.1L378.254 11.2246Z" fill="white"/>
<path d="M358.318 11.6367C356.341 14.107 354.117 16.6596 351.481 19.2946C347.856 22.9176 344.066 25.8819 340.277 28.4346L321 152.442L358.318 11.6367Z" fill="white"/>
<path d="M395.142 20.1173C394.401 19.8702 393.66 19.5409 392.836 19.2938C389.952 18.141 385.751 16.2472 380.973 13.1182L327.344 154.006L395.142 20.1173Z" fill="white"/>
<path d="M346.785 175.086L529.668 145.608C532.057 139.432 535.517 133.503 540.048 127.986C541.449 126.257 542.273 124.199 542.437 122.058L346.785 175.086Z" fill="white"/>
<path d="M485.595 41.2799C482.135 39.5507 478.758 37.2451 475.71 33.9514C473.815 31.9752 472.332 29.8343 471.096 27.6934L338.465 161.088L485.595 41.2799Z" fill="white"/>
<path d="M317.21 193.118H318.199V193.036L319.187 192.871V192.789L320.094 192.542V192.46L321 192.048V191.966L321.906 191.554L321.824 191.472L322.73 190.895H322.647L323.389 190.236V190.154L324.048 189.495V189.413L324.624 188.59L325.119 187.766L325.036 187.684L325.531 186.778H325.448L325.778 185.872L325.695 185.79L326.025 184.802H325.943L326.025 183.814V182.826H325.943L325.86 181.837L325.695 180.849H325.613L325.284 179.861V179.944L324.872 178.956L324.789 179.038L324.377 178.132H324.295L323.718 177.309L323.636 177.391L323.059 176.568L322.977 176.65L322.318 175.909L322.071 176.156L321.412 175.415L320.505 174.838V174.921L319.599 174.509V174.591L318.611 174.18V174.262L317.622 174.015V174.097L316.634 173.933V174.015H315.645L314.657 174.097V174.18L313.668 174.344V174.427L312.679 174.674V174.756L311.773 175.085V175.168L310.949 175.662V175.744L310.126 176.238V176.321L309.384 176.979L309.467 177.062L308.725 177.72L308.808 177.803L308.149 178.544L308.231 178.626L307.654 179.45L307.737 179.532L307.325 180.438L306.995 181.343L307.078 181.426L306.83 182.332L306.913 182.414L306.748 183.402H306.83L306.748 184.39H306.83L306.913 185.378H306.995L307.16 186.366H307.242L307.489 187.354L307.572 187.272L307.901 188.26L307.984 188.178L308.478 189.084H308.56L309.055 189.907L309.137 189.825L309.796 190.648V190.566L310.538 191.307L310.62 191.225L311.361 191.883L311.444 191.801L312.268 192.295L313.174 192.707L313.256 192.624L314.162 193.036V192.954L315.151 193.201V193.118L316.139 193.283V193.201H317.21V193.118Z" fill="white"/>
<path d="M533.952 190.813C533.869 190.731 533.787 190.566 533.704 190.484C532.057 188.096 530.492 185.461 529.256 182.497C527.773 179.038 526.867 175.497 526.29 171.792L347.855 181.673L533.952 190.813Z" fill="white"/>
<path d="M515.17 49.5138C513.44 48.0316 511.298 47.0435 508.826 46.8788C506.849 46.7142 504.707 46.4671 502.566 46.1378C498.611 45.479 493.833 44.5733 489.055 42.7617L340.771 163.558L515.17 49.5138Z" fill="white"/>
<path d="M542.108 118.764C541.531 116.458 540.213 114.399 538.236 112.835C536.094 111.188 533.869 109.294 531.728 106.989C530.739 106.001 529.174 104.189 527.361 101.719L345.714 172.039L542.108 118.764Z" fill="white"/>
<path d="M517.229 76.6044C516.899 73.8871 516.817 71.0052 517.064 68.0408C517.311 65.1588 517.723 62.5239 518.382 60.0536C519.124 57.1716 518.547 54.372 517.229 52.0664L342.666 166.111L517.229 76.6044Z" fill="white"/>
<path d="M94.4551 301.482C94.9494 305.599 95.2789 309.798 95.6084 313.998C95.8555 317.292 96.1027 321.326 96.1027 325.937C96.1027 326.596 96.1851 327.173 96.2674 327.749L290.107 201.106L94.4551 301.482Z" fill="white"/>
<path d="M324.872 213.951L342.089 320.338C344.643 319.761 346.95 319.267 349.009 318.773C350.327 318.526 351.646 318.197 353.128 317.95L324.872 213.951Z" fill="white"/>
<path d="M273.385 359.945C274.291 360.356 275.115 360.85 275.939 361.262C280.717 363.815 286.566 362.333 289.614 358.051L311.856 214.857L273.385 359.945Z" fill="white"/>
<path d="M286.813 172.616L185.815 121.563C183.014 123.869 179.142 126.751 174.199 129.715L286.813 172.616Z" fill="white"/>
<path d="M510.886 210.246C516.158 208.682 521.43 207.694 526.373 207.117C532.881 206.294 536.753 200.036 535.435 194.189L347.938 184.885L510.886 210.246Z" fill="white"/>
<path d="M344.644 197.647L438.145 257.922C446.053 256.193 453.22 255.617 458.328 255.452C458.575 255.452 458.74 255.452 458.987 255.369L344.644 197.647Z" fill="white"/>
<path d="M234.913 352.534C241.339 352.122 246.529 352.616 249.165 352.863C250.153 352.945 251.142 353.11 252.13 353.275L305.43 213.128L234.913 352.534Z" fill="white"/>
<path d="M345.961 194.601L463.352 253.969C465.494 252.734 467.142 250.758 467.966 248.288C468.789 245.982 469.695 243.924 470.602 242.03L345.961 194.601Z" fill="white"/>
<path d="M336.487 207.858L389.622 289.048C390.611 287.566 391.682 286.166 392.835 284.684C393.906 283.366 394.977 282.131 396.048 280.896L336.487 207.858Z" fill="white"/>
<path d="M84.158 250.182C83.8285 250.346 83.499 250.511 83.1695 250.676C76.991 254.052 75.8376 262.451 80.7804 267.474C80.8628 267.556 80.8628 267.556 80.9452 267.638C82.6752 269.368 84.158 271.261 85.4761 273.155L287.06 195.095L84.158 250.182Z" fill="white"/>
<path d="M286.071 192.049L117.192 219.304C114.309 223.751 111.755 226.962 110.272 228.691C104.835 235.114 99.0686 240.219 93.4668 244.254L286.071 192.049Z" fill="white"/>
<path d="M146.025 142.149C143.965 142.808 141.824 143.385 139.599 143.879C134.492 145.114 131.114 149.89 131.526 155.077L285.165 178.956L146.025 142.149Z" fill="white"/>
<path d="M97.4209 330.96C99.398 334.583 103.435 336.807 107.801 336.395C111.508 336.065 115.544 335.818 119.993 335.901C122.547 335.983 125.677 335.983 129.302 336.312L292.085 203.741L97.4209 330.96Z" fill="white"/>
<path d="M160.937 344.958C162.749 345.864 164.479 346.934 166.291 348.005C170.493 350.722 174.2 353.604 177.412 356.65L296.863 208.27L160.937 344.958Z" fill="white"/>
<path d="M179.719 358.957C181.861 361.18 183.838 363.403 185.485 365.544C188.286 369.167 192.9 370.32 196.936 369.085L299.499 210.164L179.719 358.957Z" fill="white"/>
<path d="M528.351 149.148L347.444 178.38L525.879 168.499C525.55 162.076 526.373 155.571 528.351 149.148Z" fill="white"/>
<path d="M293.897 161.582L221.733 73.0635C220.085 76.6865 218.273 80.4743 216.131 84.3444L293.897 161.582Z" fill="white"/>
<path d="M328.003 212.881L356.424 317.456C359.966 316.962 363.838 316.55 368.122 316.385L328.003 212.881Z" fill="white"/>
<path d="M331.051 211.563L371.582 316.221C375.618 315.644 378.913 312.845 380.149 308.892C380.232 308.563 380.396 308.233 380.479 307.822L331.051 211.563Z" fill="white"/>
<path d="M321.659 214.692L327.755 324.784C331.627 323.302 335.417 322.149 338.877 321.243L321.659 214.692Z" fill="white"/>
<path d="M333.852 209.834L382.044 303.622C383.444 299.917 385.339 296.046 387.728 292.176L333.852 209.834Z" fill="white"/>
<path d="M294.309 206.129L133.998 336.724C141 337.63 149.321 339.441 157.806 343.394L294.309 206.129Z" fill="white"/>
<path d="M308.561 214.116L255.344 353.851C260.946 354.922 265.971 356.651 270.255 358.545L308.561 214.116Z" fill="white"/>
<path d="M318.364 215.104L312.598 332.525C316.552 329.89 320.588 327.831 324.543 326.102L318.364 215.104Z" fill="white"/>
<path d="M302.382 211.811L204.268 363.897C212.753 356.898 222.556 354.016 230.959 352.945L302.382 211.811Z" fill="white"/>
<path d="M347.608 188.179L484.112 224.327C490.126 218.975 497.046 215.187 504.048 212.47L347.608 188.179Z" fill="white"/>
<path d="M314.41 152.112L320.012 38.3975C315.893 39.7973 312.433 40.6207 309.961 41.1971C309.467 41.2794 308.89 41.4441 308.231 41.6088L314.41 152.112Z" fill="white"/>
<path d="M309.137 334.913L315.069 215.104L293.979 350.722C295.133 349.076 296.369 347.346 297.769 345.7C301.394 341.418 305.183 337.877 309.137 334.913Z" fill="white"/>
<path d="M341.101 203.165L408.57 270.192C411.618 268.133 414.666 266.404 417.796 264.839L341.101 203.165Z" fill="white"/>
<path d="M338.959 205.635L398.437 278.59C400.826 276.202 403.38 274.061 405.934 272.167L338.959 205.635Z" fill="white"/>
<path d="M346.95 191.39L472.168 238.984C473.321 236.925 474.474 235.113 475.628 233.549C477.358 231.161 479.252 228.938 481.229 226.962L346.95 191.39Z" fill="white"/>
<path d="M343.078 200.447L421.257 263.274C425.458 261.463 429.742 259.981 433.778 258.91L343.078 200.447Z" fill="white"/>
<path d="M304.771 154.336L274.537 42.7618C271.819 42.3501 269.018 41.8561 266.135 41.1973C264.158 40.7033 262.181 40.2092 260.368 39.6328L304.771 154.336Z" fill="white"/>
<path d="M301.805 155.653L256.332 38.315C253.366 37.2445 250.565 36.1741 248.094 35.0213C245.293 33.7861 242.327 33.7861 239.773 34.8566L301.805 155.653Z" fill="white"/>
<path d="M298.922 157.382L236.89 36.5859C235.407 37.8211 234.171 39.5503 233.595 41.6088C232.606 44.8202 231.453 48.3609 230.135 52.0663L298.922 157.382Z" fill="white"/>
<path d="M344.313 168.992L525.384 98.9189C522.336 94.2254 519.124 87.8027 517.723 80.0625L344.313 168.992Z" fill="white"/>
<path d="M311.114 152.524L305.018 42.2676C301.97 42.844 298.016 43.338 293.567 43.5851L311.114 152.524Z" fill="white"/>
<path d="M296.286 159.359L228.652 55.9365C227.087 60.136 225.274 64.7472 223.215 69.6877L296.286 159.359Z" fill="white"/>
<path d="M330.392 155.324L415.325 23.7404C409.97 23.5757 404.204 22.8347 398.273 21.1055L330.392 155.324Z" fill="white"/>
<path d="M317.705 152.112L336.57 30.7393C331.957 33.5389 327.426 35.5975 323.389 37.162L317.705 152.112Z" fill="white"/>
<path d="M285.33 188.837L127.573 197.565C125.184 204.647 122.218 210.74 119.417 215.598L285.33 188.837Z" fill="white"/>
<path d="M132.186 174.757L284.918 182.332L131.938 158.535C132.433 163.311 132.598 168.828 132.186 174.757Z" fill="white"/>
<path d="M284.918 185.625L131.938 178.05C131.279 183.896 130.126 189.331 128.726 194.271L284.918 185.625Z" fill="white"/>
<path d="M288.46 198.224L87.2881 276.12C90.9952 282.707 92.8899 290.118 94.0432 298.023L288.46 198.224Z" fill="white"/>
<path d="M291.673 164.052L214.483 87.3086C212.67 90.5199 210.611 93.8136 208.387 97.025L291.673 164.052Z" fill="white"/>
<path d="M289.779 166.687L206.493 99.6602C204.351 102.624 201.962 105.506 199.49 108.388L289.779 166.687Z" fill="white"/>
<path d="M285.824 175.745L170.41 131.856C165.22 134.738 158.959 137.703 151.792 140.255L285.824 175.745Z" fill="white"/>
<path d="M184.169 120.739C180.379 123.786 176.342 126.503 172.141 129.056L176.013 130.538C179.72 128.233 183.345 125.68 186.722 122.88C186.969 122.716 187.134 122.551 187.381 122.386L184.169 120.739ZM205.258 98.6717C203.034 101.636 200.727 104.683 198.091 107.565L200.892 109.376C203.363 106.577 205.67 103.695 207.812 100.73L205.258 98.6717ZM220.58 71.6634C218.933 75.3688 217.038 79.2389 214.979 83.1913L217.368 85.5792C219.427 81.7915 221.239 78.0861 222.887 74.5453L220.58 71.6634ZM236.15 35.1034C234.173 36.6679 232.773 38.7264 232.031 41.1143C231.125 44.2434 230.054 47.29 228.983 50.3367L231.29 53.7951C232.69 49.925 234.008 45.9725 235.244 42.0201C235.738 40.4556 236.562 39.0558 237.798 37.9853L236.15 35.1034ZM274.045 41.032C271.574 40.6203 269.102 40.2086 266.548 39.5498C264.242 38.9734 261.935 38.397 259.629 37.656L261.111 41.5261C262.677 41.9378 264.242 42.3495 265.807 42.7612C268.937 43.5023 272.068 44.0787 275.034 44.4904L274.045 41.032ZM304.937 40.6203C301.477 41.279 297.606 41.7731 293.239 42.0201L293.734 45.3138C297.853 45.0668 301.725 44.5727 305.02 43.9963L304.937 40.6203ZM323.473 35.3504L323.308 38.9734C327.262 37.4913 331.628 35.5151 336.242 32.8801L336.901 28.5983C332.205 31.5626 327.592 33.7859 323.473 35.3504ZM375.784 7.18928C373.148 5.04838 369.77 3.97793 366.393 4.38964C365.322 4.47199 364.333 4.80136 363.345 5.13073L362.191 9.57721C363.509 8.50676 365.075 7.84802 366.722 7.68334C369.194 7.35397 371.665 8.17739 373.56 9.7419C374.878 10.8123 376.196 11.8005 377.514 12.7886L378.75 9.57721C377.844 8.83613 376.773 8.01271 375.784 7.18928ZM399.098 19.7053L397.615 22.6697C403.464 24.3988 409.066 25.2223 414.338 25.3869L416.397 22.0933C410.96 22.0933 405.111 21.4345 399.098 19.7053ZM469.862 21.1875C468.709 17.9761 466.402 15.5059 463.272 14.106C460.141 12.7886 456.599 12.7886 453.551 14.106C453.056 14.3531 452.562 14.5178 452.068 14.7648L448.031 19.7877C450.338 18.9642 452.645 18.1408 454.869 17.1527C457.175 16.1646 459.729 16.1646 462.036 17.1527C464.342 18.1408 465.99 19.9524 466.814 22.2579C467.226 23.3284 467.638 24.3988 468.132 25.4693L470.603 22.999C470.356 22.4226 470.109 21.7639 469.862 21.1875ZM476.864 32.7978C475.052 30.9039 473.569 28.763 472.251 26.4574L469.862 28.8453C471.18 31.0686 472.745 33.1271 474.475 35.021C477.523 38.3147 480.818 40.6203 484.196 42.3495L486.997 40.0439C483.455 38.4794 479.995 36.1738 476.864 32.7978ZM520.031 60.4648C520.855 57.3358 520.361 53.9598 518.631 51.1601L515.83 52.9716C516.983 54.9479 517.395 57.3358 516.818 59.6414C516.159 62.3587 515.665 65.1583 515.418 67.8756C515.171 71.1693 515.253 74.3807 515.665 77.345L518.796 75.6981C518.548 73.2279 518.548 70.6753 518.713 68.0403C518.96 65.57 519.372 62.9351 520.031 60.4648ZM540.709 122.551C540.461 124.115 539.802 125.68 538.814 126.915C533.953 132.844 530.164 139.266 527.775 145.936L531.564 145.36C533.871 139.678 537.166 134.161 541.368 129.056C543.098 126.915 544.086 124.362 544.169 121.645L540.709 122.551ZM530.164 148.818L526.539 149.395C524.645 155.735 523.821 162.24 524.315 168.498L527.61 168.333C527.116 161.993 528.022 155.323 530.164 148.818ZM501.001 211.975C494.411 214.774 487.985 218.562 482.219 223.75L486.008 224.738C492.599 219.221 500.013 215.433 507.427 212.881L501.001 211.975ZM469.121 241.453C468.132 243.512 467.226 245.57 466.484 247.794C465.661 250.264 463.848 252.076 461.624 253.064L465.166 254.875C467.226 253.475 468.791 251.417 469.615 248.947C470.356 246.806 471.262 244.747 472.251 242.688L469.121 241.453ZM431.802 257.757C427.848 258.91 423.729 260.31 419.693 262.204L422.576 264.509C426.942 262.615 431.308 261.216 435.509 260.145L431.802 257.757ZM404.699 270.932C402.146 272.826 399.757 274.967 397.368 277.272L399.427 279.825C401.899 277.355 404.452 275.214 407.006 273.238L404.699 270.932ZM367.546 314.82C363.674 314.985 359.802 315.397 356.013 315.973L356.837 319.185C360.791 318.608 364.745 318.279 368.782 318.114L367.546 314.82ZM338.631 319.596C335.253 320.502 331.546 321.572 327.674 323.055L327.839 326.513C331.793 324.949 335.583 323.796 339.125 322.808L338.631 319.596ZM296.535 344.546C295.876 345.369 295.217 346.193 294.558 347.016L293.404 354.674C295.134 351.874 297.029 349.157 299.088 346.687C302.219 342.981 305.514 339.77 309.056 337.053L309.304 332.771C304.855 335.982 300.489 339.853 296.535 344.546ZM288.791 356.074C287.638 358.215 285.743 359.779 283.436 360.438C281.13 361.097 278.741 360.85 276.681 359.779C275.693 359.285 274.786 358.791 273.798 358.297L272.974 361.509C273.715 361.838 274.457 362.25 275.116 362.661C277.999 364.226 281.294 364.555 284.425 363.567C286.155 363.073 287.802 362.167 289.12 360.932L290.274 353.521C289.78 354.427 289.285 355.251 288.791 356.074ZM249.249 351.298C244.471 350.804 240.022 350.722 235.656 350.886L233.926 354.345C238.622 353.933 243.564 354.015 248.837 354.592C249.661 354.674 250.567 354.756 251.391 354.921L252.626 351.792C251.555 351.545 250.402 351.38 249.249 351.298ZM193.23 368.014C190.677 367.849 188.37 366.614 186.805 364.638C184.91 362.167 182.933 359.862 180.791 357.721L178.731 360.273C180.709 362.25 182.521 364.391 184.251 366.614C186.393 369.331 189.606 371.06 193.066 371.225C193.313 371.225 193.642 371.225 193.889 371.225C194.548 371.225 195.125 371.143 195.702 371.06L198.667 366.531C197.02 367.602 195.125 368.096 193.23 368.014ZM135.729 335.324L132.269 338.206C139.354 338.947 147.839 340.676 156.654 344.711L159.125 342.24C150.722 338.288 142.649 336.312 135.729 335.324ZM119.995 334.253C119.336 334.253 118.677 334.253 118.1 334.253C114.64 334.253 111.098 334.418 107.638 334.747C105.084 334.994 102.53 334.171 100.635 332.442C99.8939 331.701 99.2349 330.877 98.7406 330.054L95.9397 331.865C96.5988 333.018 97.4226 334.006 98.4111 334.912C100.965 337.218 104.425 338.37 107.885 338.041C111.839 337.629 115.876 337.465 119.912 337.547C122.054 337.547 124.608 337.629 127.409 337.794L131.116 334.83C126.667 334.336 122.878 334.253 119.995 334.253ZM88.855 275.461L85.7246 276.696C89.5141 283.283 91.3264 290.776 92.4798 298.764L95.6102 297.199C94.4569 289.459 92.5621 282.13 88.855 275.461ZM114.969 219.715C112.828 222.926 110.768 225.561 108.956 227.702C103.107 234.619 96.2692 240.712 88.6079 245.653L97.6697 243.183C102.695 239.23 107.308 234.784 111.427 229.843C113.734 227.126 116.452 223.503 119.253 219.056L114.969 219.715ZM130.292 177.967C129.633 183.896 128.48 189.331 126.997 194.354L130.457 194.189C131.857 189.248 133.011 183.896 133.587 178.132L130.292 177.967ZM142.896 141.325C141.661 141.654 140.425 141.984 139.189 142.313C133.34 143.713 129.468 149.065 129.88 154.911L133.258 155.406C132.599 150.877 135.564 146.595 140.013 145.524C143.061 144.783 146.109 143.96 149.075 142.972L142.896 141.325ZM130.21 158.288C130.786 163.722 130.869 169.239 130.539 174.674L133.834 174.838C134.246 169.568 134.082 164.134 133.587 158.782L130.21 158.288ZM125.844 197.73C123.455 204.811 120.407 210.904 117.276 216.01L121.477 215.351C124.361 210.328 127.162 204.317 129.304 197.565L125.844 197.73ZM82.0175 266.403C79.958 264.345 79.0518 261.545 79.4637 258.663C79.8756 255.863 81.5232 253.558 83.9946 252.158C86.0541 251.005 88.0312 249.852 90.0084 248.617L79.5461 251.417C77.7338 253.228 76.5804 255.534 76.2509 258.169C75.6743 262.039 76.91 265.827 79.7109 268.626L79.8756 268.791C81.4409 270.356 82.7589 272.085 83.9946 273.814L87.1251 272.579C85.7246 270.438 84.077 268.462 82.1823 266.485L82.0175 266.403ZM97.7521 325.937C97.7521 321.902 97.5873 317.867 97.2578 313.832C96.9283 309.386 96.5164 304.939 96.0221 300.658L92.8917 302.304C93.3036 306.174 93.6331 310.127 93.9626 314.162C94.2921 318.032 94.4569 322.067 94.4569 326.019C94.4569 326.925 94.5393 327.913 94.7864 328.819L97.7521 326.842C97.7521 326.431 97.7521 326.184 97.7521 325.937ZM167.198 346.687C165.551 345.616 163.821 344.628 162.173 343.805L159.702 346.275C161.596 347.263 163.491 348.334 165.386 349.487C169.258 351.957 172.965 354.839 176.342 357.968L178.402 355.415C174.942 352.121 171.153 349.24 167.198 346.687ZM206.823 359.862L200.974 368.919C201.468 368.59 201.88 368.178 202.292 367.767C202.786 367.272 203.281 366.778 203.857 366.284C210.86 360.026 219.592 356.156 230.054 354.674L231.867 351.133C222.228 352.204 213.908 355.168 206.823 359.862ZM256.004 352.286L254.85 355.415C260.04 356.403 265.066 357.968 269.926 360.109L270.75 356.897C265.972 354.839 261.029 353.274 256.004 352.286ZM324.461 324.29C320.59 325.937 316.635 327.913 312.681 330.465L312.434 334.583C316.471 331.865 320.59 329.642 324.626 327.913L324.461 324.29ZM352.718 316.467C351.317 316.714 349.999 316.961 348.681 317.208C346.622 317.62 344.397 318.114 341.844 318.69L342.338 321.984C344.892 321.325 347.281 320.831 349.34 320.42C350.741 320.09 352.141 319.843 353.542 319.596L352.718 316.467ZM379.491 305.845C379.162 306.669 378.915 307.574 378.667 308.398C377.596 311.856 374.548 314.326 371.088 314.656L372.324 317.785C376.608 317.044 380.15 314.079 381.715 309.88L379.491 305.845ZM386.658 290.612C384.516 294.07 382.622 297.776 380.974 301.646L382.951 305.598C384.516 301.399 386.411 297.446 388.635 293.658L386.658 290.612ZM395.061 279.66C393.825 280.978 392.672 282.295 391.601 283.695C390.612 284.93 389.624 286.248 388.718 287.565L390.695 290.529C391.766 288.883 393.002 287.236 394.237 285.671C395.226 284.436 396.214 283.283 397.203 282.13L395.061 279.66ZM416.397 263.686C413.349 265.25 410.384 266.979 407.418 268.956L409.807 271.344C412.937 269.285 416.068 267.474 419.281 265.991L416.397 263.686ZM455.94 253.887C450.42 254.134 443.583 254.875 436.169 256.604L440.04 259.157C446.96 257.757 453.304 257.263 458.329 257.098C459.4 257.098 460.388 256.934 461.377 256.604L455.94 253.887ZM479.5 226.467C477.688 228.361 475.958 230.419 474.393 232.643C473.075 234.537 471.839 236.43 470.686 238.489L473.816 239.642C474.805 237.913 475.876 236.183 477.111 234.537C479.006 231.902 481.066 229.596 483.29 227.455L479.5 226.467ZM537.166 194.271L533.706 194.106C534.283 196.083 534.201 198.224 533.294 200.2C531.976 203.082 529.34 205.058 526.21 205.47C520.443 206.211 513.935 207.446 507.262 209.669L515.006 210.904C519.043 209.916 522.997 209.257 526.622 208.763C530.988 208.187 534.612 205.552 536.342 201.517C537.331 199.129 537.578 196.659 537.166 194.271ZM535.931 190.895C535.683 190.401 535.354 189.989 535.107 189.495C533.377 187.107 531.976 184.472 530.823 181.837C529.423 178.544 528.516 175.168 527.94 171.627L524.645 171.792C525.221 175.662 526.21 179.45 527.775 183.073C528.846 185.708 530.246 188.26 531.894 190.648L535.931 190.895ZM539.226 111.517C536.919 109.788 534.86 107.894 532.883 105.835C531.812 104.683 530.411 103.118 528.846 101.06L525.715 102.295C527.528 104.765 529.175 106.741 530.493 108.059C532.553 110.282 534.777 112.258 537.249 114.152C538.896 115.47 540.05 117.199 540.544 119.175L543.757 118.351C543.098 115.634 541.532 113.246 539.226 111.517ZM519.29 79.2389L516.242 80.8034C517.725 88.2965 520.773 94.6369 523.903 99.4951L527.034 98.2599C523.821 93.4841 520.608 86.979 519.29 79.2389ZM508.91 45.2315C506.85 45.0668 504.791 44.8197 502.814 44.4904C499.189 43.8316 494.905 43.0906 490.539 41.5261L487.574 43.914C492.764 46.0549 497.953 46.9607 502.237 47.7017C504.379 48.1134 506.521 48.3605 508.663 48.5252C510.558 48.6898 512.288 49.3486 513.688 50.5014L516.571 48.6075C514.512 46.6313 511.793 45.3961 508.91 45.2315ZM443.583 17.7291C438.805 19.1289 430.484 21.5992 420.434 22.0933L418.21 25.4693C428.342 25.3046 436.91 23.0814 442.429 21.5169L446.054 16.988C445.23 17.2351 444.407 17.4821 443.583 17.7291ZM393.496 17.8115C389.377 16.1646 385.423 14.106 381.633 11.6358L380.397 14.7648C384.187 17.2351 388.141 19.2936 392.178 20.8581C392.919 21.1051 393.578 21.4345 394.32 21.6815L395.802 18.7172C395.061 18.3878 394.237 18.0585 393.496 17.8115ZM358.155 9.1655C355.766 12.3769 353.13 15.3412 350.329 18.1408C347.198 21.2698 343.903 23.9048 340.69 26.2104L340.031 30.6569C344.233 27.9396 348.516 24.5635 352.718 20.5287C354.365 18.9642 355.931 17.2351 357.413 15.5059L359.473 7.84802C358.896 8.25974 358.484 8.67145 358.155 9.1655ZM309.633 39.6322C309.139 39.7145 308.645 39.8792 308.15 39.9615L308.315 43.2552C308.974 43.0906 309.715 42.9259 310.374 42.8435C312.516 42.3495 315.894 41.5261 319.931 40.2086L320.095 36.6679C315.647 38.15 311.94 39.0558 309.633 39.6322ZM289.944 42.1025C286.072 42.1848 281.953 42.0201 277.587 41.5261L278.493 44.9021C282.695 45.3138 286.731 45.3961 290.439 45.3138L289.944 42.1025ZM255.51 36.3385C253.203 35.5151 250.979 34.527 248.754 33.5388C245.624 32.139 242.164 32.0567 238.951 33.3742L240.434 36.3385C242.658 35.5151 245.13 35.5151 247.354 36.5855C250.484 38.0677 253.78 39.3028 257.075 40.3733L255.51 36.3385ZM227.583 54.2068C226.018 58.4886 224.205 63.1821 222.063 68.205L224.37 71.087C226.512 66.2288 228.242 61.6999 229.807 57.5828L227.583 54.2068ZM213.331 86.1556C211.436 89.4493 209.459 92.743 207.153 96.0367L209.706 98.0953C211.931 94.8839 213.908 91.7549 215.72 88.5436L213.331 86.1556ZM195.784 110.035C193.066 112.917 190.1 115.717 186.969 118.434L190.182 120.081C193.23 117.446 196.031 114.728 198.667 111.846L195.784 110.035ZM168.434 131.115C162.338 134.491 155.748 137.29 148.91 139.513L154.594 140.996C160.855 138.69 166.786 135.89 172.471 132.597L168.434 131.115Z" fill="black"/>
</g>
<path d="M758.252 357.65C786.511 349.544 824.744 339.359 870.457 329.59C951.078 312.443 1018.92 304.44 1075.13 299.452C1267.64 282.512 1363.95 273.99 1431.48 292.177C1659.42 353.493 1804.77 628.584 1767.06 673.584C1736.62 709.854 1569.04 618.815 1518.75 591.483C1457.97 558.434 1424.62 527.569 1405.51 507.303C1386.6 487.349 1385.15 481.426 1373.3 469.89C1327.07 424.578 1259.33 425.306 1194.6 424.163C1168.84 423.747 1006.45 420.525 861.106 398.181C811.341 390.491 724.175 374.59 725.006 364.925C725.421 360.664 742.668 358.69 758.252 357.65Z" fill="#CCC08F" stroke="black" stroke-width="4" stroke-miterlimit="10"/>
<path d="M909.5 342.204C909.3 343.406 909 344.608 908.8 345.911L905.9 360.436L900.1 360.736C883.2 366.346 872.8 376.764 872.8 376.764C836.9 388.785 702.8 379.569 686.4 378.367C680.4 371.455 676 364.242 672.7 358.031C671.9 356.429 671.1 354.926 670.4 353.424L682.4 357.13L684.6 360.135C684.6 360.135 834.4 371.355 872.7 358.633C872.7 358.633 883.1 348.215 900 342.605L909.5 342.204Z" fill="#91825E" stroke="black" stroke-width="3" stroke-miterlimit="10"/>
<path d="M905.9 360.436L904.2 369.251C903.9 370.753 903.5 372.156 902.9 373.558L900.1 373.658C883.2 379.268 872.8 389.686 872.8 389.686C842.5 399.804 742.5 394.795 701.9 392.291C695.8 388.184 690.6 383.375 686.3 378.266C702.7 379.468 836.9 388.584 872.7 376.664C872.7 376.664 883.1 366.246 900 360.636L905.9 360.436Z" fill="#5E4B21" stroke="black" stroke-width="3" stroke-miterlimit="10"/>
<path d="M902.9 373.458C901.5 376.664 899.3 379.569 896.4 381.672C881.6 392.691 868.4 398.301 859.3 401.406C844.3 406.515 814.4 400.805 755.2 403.61C742.1 404.211 728.6 405.013 713.2 398.401C709.1 396.598 705.4 394.595 702 392.19C742.5 394.695 842.6 399.603 872.8 389.586C872.8 389.586 883.2 379.168 900.1 373.558L902.9 373.458Z" fill="#453000" stroke="black" stroke-width="3" stroke-miterlimit="10"/>
<path d="M911 340V345.209C911 345.209 910.2 345.51 908.8 346.01C901.5 348.615 878.4 357.33 876.6 364.843C874.4 373.859 717.8 373.057 686.3 364.843L678.8 362.639L678 360.235L672.8 358.031L669 356.428L670.5 353.423L682.5 357.13L684.7 360.135C684.7 360.135 834.5 371.354 872.8 358.632C872.8 358.632 883.2 348.214 900.1 342.605C903.5 341.503 907.1 340.601 911 340Z" fill="#917433" stroke="black" stroke-width="3" stroke-miterlimit="10"/>
<path d="M1060.2 352.712C1059.9 354.219 1059.6 355.625 1059.3 357.131L1055.91 374.508L1048.91 374.809C1028.73 381.539 1016.25 394.094 1016.25 394.094C973.392 408.458 813.158 397.409 793.679 396.003C786.586 387.767 781.291 379.128 777.395 371.696C776.396 369.787 775.497 367.979 774.698 366.171L788.983 370.691L791.681 374.307C791.681 374.307 970.595 387.767 1016.25 372.499C1016.25 372.499 1028.63 360.044 1048.91 353.214L1060.2 352.712Z" fill="#F28630" stroke="black" stroke-width="3" stroke-miterlimit="10"/>
<path d="M1055.91 374.508L1053.81 385.054C1053.51 386.862 1052.91 388.57 1052.21 390.177L1048.91 390.378C1028.73 397.107 1016.25 409.663 1016.25 409.663C980.184 421.716 860.708 415.89 812.259 412.877C804.966 407.955 798.773 402.13 793.578 396.103C813.158 397.509 973.391 408.558 1016.15 394.195C1016.15 394.195 1028.53 381.74 1048.81 374.91L1055.91 374.508Z" fill="#994A0B" stroke="black" stroke-width="3" stroke-miterlimit="10"/>
<path d="M1052.31 390.178C1050.61 394.095 1048.01 397.51 1044.52 400.122C1026.84 413.28 1011.05 420.11 1000.26 423.826C982.383 429.953 946.62 423.123 875.893 426.538C860.31 427.241 844.126 428.246 825.745 420.21C820.95 418.101 816.455 415.59 812.359 412.777C860.709 415.791 980.185 421.717 1016.35 409.563C1016.35 409.563 1028.73 397.108 1049.01 390.278L1052.31 390.178Z" fill="#88C462" stroke="black" stroke-width="3" stroke-miterlimit="10"/>
<path d="M1062 350V356.227C1062 356.227 1061 356.529 1059.3 357.131C1050.61 360.245 1023.04 370.691 1020.84 379.731C1018.15 390.479 831.14 389.675 793.579 379.731L784.588 377.019L783.689 374.307L777.495 371.696L773 369.787L774.798 366.171L789.083 370.691L791.781 374.307C791.781 374.307 970.695 387.767 1016.35 372.499C1016.35 372.499 1028.73 360.044 1049.01 353.214C1053.01 351.908 1057.3 350.703 1062 350Z" fill="#040C33" stroke="black" stroke-width="3" stroke-miterlimit="10"/>
<path d="M318.211 194.238C315.762 191.995 314.061 192.606 312.156 190.227C309.91 187.372 310.046 183.769 310.114 182.206C310.182 180.37 310.387 176.903 312.156 176.156C313.993 175.34 317.327 177.787 320.184 182.206C320.184 181.526 320.184 180.846 320.184 180.166C320.184 178.807 319.98 178.263 320.184 178.127C320.525 177.991 321.545 178.943 322.226 180.166C323.314 182.274 322.498 184.109 322.226 188.188C322.158 189.819 322.158 191.247 322.226 192.199C324.675 194.85 326.853 196.889 328.281 198.249C334.949 204.435 338.896 206.542 342.366 212.32C343.387 214.02 343.999 215.447 344.407 216.331C345.768 216.331 347.877 216.263 350.463 216.331C359.172 216.467 363.663 216.603 366.589 218.37C370.263 220.546 373.801 225.304 372.644 228.431C371.216 232.17 363.391 232.306 356.519 232.442C348.83 232.578 342.502 231.422 338.42 230.403C333.112 225.032 330.119 220.002 328.349 216.331C323.859 206.95 322.294 202.259 322.294 202.259C321.137 198.86 320.593 196.413 318.211 194.238Z" fill="#938650" stroke="black" stroke-width="4" stroke-miterlimit="10"/>
<path d="M344.407 254.603C346.788 255.147 350.258 255.894 354.477 256.642C360.464 257.662 366.928 258.749 374.617 258.681C380.401 258.614 391.695 258.478 392.716 254.671C393.396 252.02 388.974 248.825 388.702 248.621C383.735 245.154 377.543 246.173 374.617 246.581C367.337 247.669 357.198 248.621 342.433 248.621C340.732 247.737 337.943 246.581 334.405 246.581C330.118 246.581 324.539 248.281 324.334 250.592C324.198 252.427 327.328 254.059 328.349 254.603C334.405 257.798 341.413 255.69 344.407 254.603Z" fill="#938650" stroke="black" stroke-width="4" stroke-miterlimit="10"/>
<path d="M382.782 208.31C381.965 210.893 384.347 212.66 384.619 218.371C384.755 221.09 384.211 221.294 384.619 222.381C386.728 228.296 403.807 228.092 404.759 224.421C405.031 223.401 403.807 222.993 402.922 220.41C401.425 215.923 403.875 213.612 402.922 210.349C401.561 205.591 394.009 202.668 388.293 204.299C386.932 204.707 383.598 205.659 382.782 208.31Z" fill="#938650" stroke="black" stroke-width="4" stroke-miterlimit="10"/>
<path d="M438.984 278.735C437.283 280.503 434.629 282.814 430.955 284.785C426.94 286.893 422.79 288.048 414.829 288.796C408.841 289.34 400.676 289.68 390.81 288.796C390.742 288.796 390.742 288.796 390.674 288.796C388.089 282.95 387.068 277.987 386.66 274.724C385.775 267.859 386.932 265.343 385.639 255.622C385.163 252.02 385.299 254.603 383.598 245.562C382.917 242.027 382.781 240.735 381.557 239.511C380.128 238.084 378.223 237.744 373.528 237.472C370.398 237.336 366.315 237.268 361.484 237.472C361.825 229.791 362.165 222.041 362.505 214.359C373.119 216.195 381.148 216.467 386.66 216.399C388.565 216.331 391.014 216.263 394.689 216.399C398.839 216.535 405.847 216.875 410.814 218.438C422.858 222.245 428.573 235.773 428.913 236.52C433.404 247.465 428.233 252.835 432.928 266.703C434.357 270.918 436.194 274.317 437.691 276.764C438.167 277.444 438.575 278.123 438.984 278.735Z" fill="#EFE8D3" stroke="black" stroke-width="4" stroke-miterlimit="10"/>
<path d="M768.986 336.993C768.306 340.256 767.693 343.587 767.081 346.85L759.46 385.734L743.811 386.482C713.94 396.407 691.623 411.906 679.852 421.355C671.891 427.745 662.637 432.163 652.635 434.271C536.216 459.083 211.318 436.854 169.677 433.931C153.687 415.508 141.78 396.135 133.139 379.48C132.798 378.8 132.458 378.188 132.118 377.576C130.145 373.702 133.819 369.351 137.97 370.643L159.266 377.237L165.322 385.258C165.322 385.258 543.02 413.537 659.916 384.238C666.107 382.675 671.755 379.684 676.654 375.605C687.268 366.7 711.015 349.093 743.811 338.149L768.986 336.993Z" fill="#B59E40" stroke="black" stroke-width="4" stroke-miterlimit="10"/>
<path d="M759.459 385.734L754.833 409.323C754.084 413.266 752.859 417.141 751.294 420.743L743.81 421.083C713.94 431.008 691.622 446.507 679.851 455.956C672.026 462.21 662.909 466.629 653.111 468.736C556.356 489.538 313.652 477.506 211.658 471.252C195.26 460.239 181.379 447.255 169.744 433.795C213.699 436.922 574.114 461.531 670.393 429.445C670.393 429.445 698.358 401.505 743.81 386.414L759.459 385.734Z" fill="#DDC831" stroke="black" stroke-width="4" stroke-miterlimit="10"/>
<path d="M751.296 420.743C747.553 429.444 741.566 437.126 733.809 442.836C694.073 472.407 658.555 487.566 634.128 495.86C593.916 509.523 513.491 494.296 354.41 501.91C319.368 503.609 282.966 505.716 241.733 487.838C230.847 483.148 220.844 477.505 211.591 471.319C320.389 478.049 589.153 491.237 670.326 464.249C670.326 464.249 698.291 436.31 743.743 421.219L751.296 420.743Z" fill="#99782E" stroke="black" stroke-width="4" stroke-miterlimit="10"/>
<path d="M388.634 379.207C388.634 389.948 388.634 400.621 388.634 411.361C395.982 411.361 403.399 411.361 410.747 411.361C411.019 405.855 411.224 398.309 410.747 389.268C409.999 374.177 408.298 372.07 406.733 371.186C400.745 367.787 389.246 378.664 388.634 379.207Z" fill="#938650" stroke="black" stroke-width="4" stroke-miterlimit="10"/>
<path d="M434.971 361.126C434.018 364.321 434.495 367.244 434.971 369.148C438.577 371.663 444.02 375.266 451.097 379.208C461.099 384.783 463.684 384.987 469.196 389.269C478.177 396.203 476.612 399.602 483.28 403.341C493.691 409.187 508.796 407.216 511.449 401.301C512.606 398.718 511.654 394.707 509.408 393.28C507.503 392.056 505.326 393.144 503.353 393.28C496.48 393.756 490.629 382.675 487.227 377.237C480.286 366.02 464.841 347.938 451.029 349.094C444.701 349.57 437.012 354.26 434.971 361.126Z" fill="#938650" stroke="black" stroke-width="4" stroke-miterlimit="10"/>
<path d="M458.104 352.084C453.749 356.095 449.054 359.426 444.019 362.145C433.813 367.583 429.73 366.36 419.864 372.206C411.767 376.964 411.903 379.411 405.78 382.267C397.002 386.345 388.021 385.597 381.625 384.306C382.373 379.751 383.258 372.817 383.666 364.184C384.279 350.52 382.714 350.181 383.666 342.091C385.367 327.952 390.334 326.932 391.695 311.909C392.376 304.499 391.831 297.225 391.695 295.798C391.491 292.943 391.151 290.699 390.811 288.796C400.677 289.68 408.842 289.34 414.829 288.796C422.722 288.048 426.873 286.892 430.955 284.785C434.629 282.814 437.283 280.503 438.984 278.735C438.576 278.123 438.167 277.511 437.691 276.764C440.141 278.259 441.978 279.755 441.978 279.755C442.726 280.367 450.007 286.349 454.021 295.866C457.627 304.363 456.062 309.733 456.062 324.009C456.062 330.739 456.403 340.392 458.104 352.084Z" fill="#875175" stroke="black" stroke-width="4" stroke-miterlimit="10"/>
<path d="M773 330.943V344.743C773 344.743 770.755 345.491 767.012 346.782C747.348 353.716 685.499 376.965 680.396 397.223C674.34 421.355 253.776 419.316 169.268 397.223L149.128 391.172L147.087 385.122L133.07 379.276L123 375.197L124.565 372.07C125.994 369.215 129.26 367.856 132.254 368.807L159.266 377.237L165.322 385.258C165.322 385.258 567.787 415.441 670.393 381.248C670.393 381.248 698.359 353.308 743.81 338.217C752.86 335.158 762.59 332.643 773 330.943Z" fill="#111928" stroke="black" stroke-width="4" stroke-miterlimit="10"/>
<path d="M378.564 190.227C377.612 191.586 378.156 192.47 378.564 198.248C379.177 207.153 378.36 211.368 380.606 212.32C381.014 212.524 381.422 212.524 382.647 212.32C385.913 211.776 389.995 211.028 392.717 208.309C397.004 203.958 397.888 194.645 392.717 190.227C388.499 186.624 380.946 186.964 378.564 190.227Z" fill="#938650" stroke="black" stroke-width="4" stroke-miterlimit="10"/>
<path d="M378.564 186.216C377.34 187.644 376.183 189.139 376.523 190.227C376.999 191.451 378.973 190.703 380.538 192.266C382.647 194.306 381.626 198.112 382.579 198.316C383.259 198.452 383.599 196.345 384.62 196.277C385.913 196.277 387.818 200.152 386.661 202.327C385.981 203.551 384.756 203.483 384.62 204.366C384.484 205.522 386.729 206.066 388.635 208.377C390.131 210.281 389.587 211.028 390.676 212.388C393.397 215.787 401.358 216.059 404.76 212.388C405.509 211.572 405.917 210.485 406.802 208.377C407.346 207.018 408.162 204.57 408.843 200.356C409.591 195.257 410.068 192.13 408.843 188.324C408.23 186.42 407.89 185.332 406.802 184.313C405.237 182.749 403.604 182.817 394.758 182.273C391.22 182.069 389.383 181.934 386.729 182.273C383.94 182.613 382.171 183.157 380.674 184.313C379.653 184.925 379.041 185.672 378.564 186.216Z" fill="#191401" stroke="black" stroke-width="4" stroke-miterlimit="10"/>
</g>
<defs>
<clipPath id="clip0">
<rect width="1440" height="480" fill="white"/>
</clipPath>
<clipPath id="clip1">
<rect width="1483" height="449" fill="white" transform="translate(0 256)"/>
</clipPath>
<clipPath id="clip2">
<rect width="468" height="367" fill="white" transform="translate(76.085 4.30762)"/>
</clipPath>
</defs>
</svg>
