<svg width="24" height="24" viewBox="0 0 24 24" fill="none" xmlns="http://www.w3.org/2000/svg">
<path fill-rule="evenodd" clip-rule="evenodd" d="M15.0962 5.90381C17.6346 8.44221 17.6346 12.5578 15.0962 15.0962C12.5578 17.6346 8.44221 17.6346 5.90381 15.0962C3.3654 12.5578 3.3654 8.44221 5.90381 5.90381C8.44221 3.3654 12.5578 3.3654 15.0962 5.90381ZM17.1784 15.7595C19.8125 12.4234 19.5898 7.56902 16.5104 4.48959C13.191 1.17014 7.80905 1.17014 4.48959 4.48959C1.17014 7.80905 1.17014 13.191 4.48959 16.5104C7.57063 19.5914 12.4285 19.8127 15.7648 17.1743L20.8528 22.2623L22.267 20.8481L17.1784 15.7595Z" fill="#000A18"/>
</svg>
