<svg width="157" height="48" viewBox="0 0 157 48" fill="none" xmlns="http://www.w3.org/2000/svg">
<path d="M26.4486 8.21989L28.3001 6.39643C31.9358 2.81563 37.8548 2.727 41.5115 6.28717C42.8971 7.63918 43.8179 9.38471 44.1445 11.2786C44.4711 13.1724 44.1871 15.1195 43.3325 16.8462C42.9225 17.6711 42.7845 18.6014 42.9373 19.5073C43.0904 20.4133 43.5267 21.2495 44.1857 21.8993C45.3975 20.7031 46.3578 19.2835 47.0123 17.7216C47.6667 16.1597 48.0024 14.4862 48 12.7965C47.9974 11.1069 47.6572 9.43427 46.9982 7.87424C46.3392 6.31418 45.3746 4.89728 44.1595 3.7045C39.0463 -1.30304 30.7467 -1.20339 25.6478 3.81821L8.00046 21.1984L6.54969 19.7696C2.8523 16.128 2.82873 10.1756 6.59135 6.59878C7.98411 5.27888 9.7585 4.41726 11.6696 4.13285C13.5808 3.84844 15.5344 4.15526 17.261 5.01095C18.049 5.40868 18.9445 5.55096 19.8196 5.41748C20.6946 5.28399 21.5045 4.88158 22.1335 4.26769L22.1785 4.22361C22.1925 4.20992 22.2035 4.19362 22.2111 4.17566C22.2187 4.15772 22.2226 4.13847 22.2226 4.11904C22.2226 4.0996 22.2187 4.08035 22.2111 4.06241C22.2035 4.04448 22.1925 4.02818 22.1785 4.01446C19.7495 1.68235 16.4947 0.372413 13.1026 0.361822C9.71046 0.351234 6.4472 1.64082 4.00334 3.95772C-1.261 8.96292 -1.24219 17.2861 3.93192 22.382L21.574 39.7575L19.7 41.6033C16.0642 45.1841 10.145 45.2727 6.48851 41.7125C5.10294 40.3606 4.18218 38.615 3.85553 36.7212C3.5289 34.8274 3.81277 32.8803 4.66731 31.1535C5.07728 30.3286 5.21545 29.3983 5.06254 28.4925C4.90961 27.5865 4.47321 26.7502 3.81432 26.1005C2.60264 27.2967 1.64213 28.7162 0.987658 30.278C0.333185 31.84 -0.00241875 33.5134 1.31224e-05 35.2032C0.00244501 36.8928 0.342864 38.5655 1.00183 40.1254C1.6608 41.6856 2.6254 43.1025 3.84051 44.2952C8.95344 49.303 17.2534 49.2036 22.3522 44.1817L40.0224 26.7783L41.4787 28.2125C45.1144 31.7934 45.2044 37.6229 41.5896 41.2241C40.2169 42.589 38.4445 43.4957 36.5217 43.8176C34.5988 44.1393 32.6219 43.8596 30.8686 43.0178C30.0308 42.6138 29.0857 42.4776 28.1656 42.6286C27.2454 42.7794 26.396 43.2096 25.7363 43.8591C26.951 45.0525 28.3922 45.9986 29.978 46.6432C31.5639 47.2877 33.263 47.6183 34.9788 47.616C36.6943 47.6134 38.3926 47.2781 39.9765 46.6291C41.5606 45.9801 42.9992 45.03 44.2102 43.8333C49.2948 38.7976 49.1936 30.6231 44.095 25.6015L26.4486 8.21989ZM24.2084 37.1617L10.6356 23.794L23.8132 10.8157L37.3861 24.1834L24.2084 37.1617Z" fill="#F5B133"/>
<path d="M61.76 21.162C60.788 21.162 59.852 21.036 58.952 20.784C58.064 20.52 57.326 20.154 56.738 19.686L57.638 17.67C58.874 18.534 60.254 18.966 61.778 18.966C62.594 18.966 63.218 18.84 63.65 18.588C64.094 18.324 64.316 17.958 64.316 17.49C64.316 17.082 64.112 16.764 63.704 16.536C63.308 16.296 62.606 16.068 61.598 15.852C60.47 15.624 59.57 15.348 58.898 15.024C58.238 14.688 57.752 14.286 57.44 13.818C57.14 13.338 56.99 12.744 56.99 12.036C56.99 11.268 57.2 10.578 57.62 9.966C58.052 9.354 58.652 8.88 59.42 8.544C60.188 8.196 61.076 8.022 62.084 8.022C62.996 8.022 63.872 8.154 64.712 8.418C65.552 8.682 66.224 9.042 66.728 9.498L65.828 11.514C64.7 10.65 63.458 10.218 62.102 10.218C61.382 10.218 60.806 10.362 60.374 10.65C59.942 10.938 59.726 11.328 59.726 11.82C59.726 12.108 59.804 12.348 59.96 12.54C60.128 12.732 60.404 12.906 60.788 13.062C61.172 13.206 61.718 13.35 62.426 13.494C64.07 13.854 65.252 14.322 65.972 14.898C66.704 15.474 67.07 16.26 67.07 17.256C67.07 18.456 66.602 19.41 65.666 20.118C64.73 20.814 63.428 21.162 61.76 21.162ZM77.7523 11.892L73.7383 21H71.4343L67.4743 11.892H70.3183L72.6583 17.796L75.0703 11.892H77.7523ZM87.617 11.874V21H84.935V19.65C84.659 20.118 84.269 20.484 83.765 20.748C83.261 21.012 82.691 21.144 82.055 21.144C81.263 21.144 80.561 20.952 79.949 20.568C79.349 20.184 78.875 19.638 78.527 18.93C78.191 18.21 78.023 17.382 78.023 16.446C78.023 15.51 78.191 14.676 78.527 13.944C78.875 13.212 79.355 12.648 79.967 12.252C80.579 11.844 81.275 11.64 82.055 11.64C82.691 11.64 83.261 11.778 83.765 12.054C84.269 12.33 84.659 12.702 84.935 13.17V11.874H87.617ZM82.847 19.074C83.519 19.074 84.035 18.846 84.395 18.39C84.755 17.934 84.935 17.274 84.935 16.41C84.935 15.546 84.755 14.886 84.395 14.43C84.035 13.962 83.519 13.728 82.847 13.728C82.175 13.728 81.653 13.968 81.281 14.448C80.909 14.928 80.723 15.594 80.723 16.446C80.723 17.298 80.903 17.952 81.263 18.408C81.635 18.852 82.163 19.074 82.847 19.074ZM95.1209 11.658C95.5049 11.658 95.8289 11.718 96.0929 11.838L96.0749 14.322C95.6309 14.118 95.1869 14.016 94.7429 14.016C94.0229 14.016 93.4709 14.214 93.0869 14.61C92.7149 14.994 92.5289 15.534 92.5289 16.23V21H89.8109V14.484C89.8109 13.512 89.7629 12.642 89.6669 11.874H92.2229L92.4029 13.44C92.6309 12.864 92.9849 12.426 93.4649 12.126C93.9569 11.814 94.5089 11.658 95.1209 11.658ZM102.828 11.64C104.988 11.64 106.068 12.918 106.068 15.474V21H103.35V15.6C103.35 14.964 103.23 14.502 102.99 14.214C102.762 13.914 102.396 13.764 101.892 13.764C101.292 13.764 100.812 13.956 100.452 14.34C100.092 14.724 99.9117 15.24 99.9117 15.888V21H97.1937V14.484C97.1937 13.512 97.1457 12.642 97.0497 11.874H99.6057L99.7857 13.314C100.11 12.774 100.53 12.36 101.046 12.072C101.574 11.784 102.168 11.64 102.828 11.64ZM108.233 11.874H110.951V21H108.233V11.874ZM111.041 7.59V10.146H108.143V7.59H111.041ZM124.332 11.64C125.376 11.64 126.15 11.958 126.654 12.594C127.17 13.218 127.428 14.178 127.428 15.474V21H124.71V15.564C124.71 14.928 124.608 14.472 124.404 14.196C124.2 13.908 123.864 13.764 123.396 13.764C122.844 13.764 122.418 13.956 122.118 14.34C121.818 14.724 121.668 15.264 121.668 15.96V21H118.95V15.564C118.95 14.94 118.842 14.484 118.626 14.196C118.422 13.908 118.092 13.764 117.636 13.764C117.084 13.764 116.652 13.956 116.34 14.34C116.04 14.724 115.89 15.264 115.89 15.96V21H113.172V14.484C113.172 13.512 113.124 12.642 113.028 11.874H115.584L115.746 13.242C116.022 12.726 116.406 12.33 116.898 12.054C117.402 11.778 117.978 11.64 118.626 11.64C119.982 11.64 120.882 12.204 121.326 13.332C121.626 12.816 122.04 12.408 122.568 12.108C123.108 11.796 123.696 11.64 124.332 11.64ZM57.278 28.184H63.092C64.508 28.184 65.606 28.526 66.386 29.21C67.178 29.894 67.574 30.824 67.574 32C67.574 33.164 67.178 34.094 66.386 34.79C65.594 35.474 64.496 35.816 63.092 35.816H60.086V41H57.278V28.184ZM62.732 33.674C64.196 33.674 64.928 33.122 64.928 32.018C64.928 30.902 64.196 30.344 62.732 30.344H60.086V33.674H62.732ZM77.7807 31.874V41H75.1347V39.668C74.8467 40.148 74.4687 40.514 74.0007 40.766C73.5327 41.018 73.0047 41.144 72.4167 41.144C71.2767 41.144 70.4247 40.826 69.8607 40.19C69.2967 39.554 69.0147 38.594 69.0147 37.31V31.874H71.7327V37.364C71.7327 38.468 72.2067 39.02 73.1547 39.02C73.7187 39.02 74.1747 38.828 74.5227 38.444C74.8707 38.06 75.0447 37.556 75.0447 36.932V31.874H77.7807ZM89.1287 27.752V41H86.4467V39.65C86.1707 40.118 85.7807 40.484 85.2767 40.748C84.7727 41.012 84.2027 41.144 83.5667 41.144C82.7867 41.144 82.0907 40.946 81.4787 40.55C80.8667 40.142 80.3867 39.578 80.0387 38.858C79.7027 38.126 79.5347 37.292 79.5347 36.356C79.5347 35.42 79.7027 34.598 80.0387 33.89C80.3867 33.17 80.8607 32.618 81.4607 32.234C82.0727 31.838 82.7747 31.64 83.5667 31.64C84.1787 31.64 84.7367 31.772 85.2407 32.036C85.7447 32.288 86.1347 32.642 86.4107 33.098V27.752H89.1287ZM84.3587 39.074C85.0307 39.074 85.5467 38.846 85.9067 38.39C86.2667 37.922 86.4467 37.256 86.4467 36.392C86.4467 35.54 86.2607 34.886 85.8887 34.43C85.5287 33.962 85.0187 33.728 84.3587 33.728C83.6867 33.728 83.1647 33.956 82.7927 34.412C82.4207 34.868 82.2347 35.516 82.2347 36.356C82.2347 37.22 82.4207 37.892 82.7927 38.372C83.1647 38.84 83.6867 39.074 84.3587 39.074ZM100.035 31.874V41H97.3886V39.668C97.1006 40.148 96.7226 40.514 96.2546 40.766C95.7866 41.018 95.2586 41.144 94.6706 41.144C93.5306 41.144 92.6786 40.826 92.1146 40.19C91.5506 39.554 91.2686 38.594 91.2686 37.31V31.874H93.9866V37.364C93.9866 38.468 94.4606 39.02 95.4086 39.02C95.9726 39.02 96.4286 38.828 96.7766 38.444C97.1246 38.06 97.2986 37.556 97.2986 36.932V31.874H100.035ZM106.559 41.144C105.071 41.144 103.901 40.724 103.049 39.884C102.209 39.044 101.789 37.898 101.789 36.446C101.789 35.498 101.993 34.664 102.401 33.944C102.809 33.212 103.379 32.648 104.111 32.252C104.855 31.844 105.713 31.64 106.685 31.64C107.345 31.64 107.987 31.742 108.611 31.946C109.235 32.15 109.733 32.426 110.105 32.774L109.385 34.664C109.025 34.376 108.629 34.154 108.197 33.998C107.765 33.83 107.345 33.746 106.937 33.746C106.193 33.746 105.611 33.974 105.191 34.43C104.783 34.874 104.579 35.528 104.579 36.392C104.579 37.268 104.783 37.934 105.191 38.39C105.599 38.834 106.181 39.056 106.937 39.056C107.345 39.056 107.765 38.978 108.197 38.822C108.629 38.654 109.025 38.426 109.385 38.138L110.105 40.028C109.709 40.376 109.193 40.652 108.557 40.856C107.921 41.048 107.255 41.144 106.559 41.144ZM117.031 31.64C119.191 31.64 120.271 32.918 120.271 35.474V41H117.553V35.6C117.553 34.964 117.433 34.502 117.193 34.214C116.965 33.914 116.599 33.764 116.095 33.764C115.495 33.764 115.015 33.956 114.655 34.34C114.295 34.724 114.115 35.24 114.115 35.888V41H111.397V27.752H114.115V33.116C114.439 32.636 114.853 32.27 115.357 32.018C115.861 31.766 116.419 31.64 117.031 31.64ZM130.626 36.662H124.614C124.662 37.514 124.884 38.138 125.28 38.534C125.676 38.918 126.264 39.11 127.044 39.11C127.512 39.11 127.98 39.032 128.448 38.876C128.916 38.72 129.348 38.492 129.744 38.192L130.464 40.028C130.032 40.376 129.492 40.652 128.844 40.856C128.208 41.048 127.566 41.144 126.918 41.144C125.382 41.144 124.176 40.724 123.3 39.884C122.424 39.032 121.986 37.874 121.986 36.41C121.986 35.486 122.172 34.664 122.544 33.944C122.928 33.212 123.462 32.648 124.146 32.252C124.83 31.844 125.604 31.64 126.468 31.64C127.752 31.64 128.766 32.06 129.51 32.9C130.254 33.728 130.626 34.85 130.626 36.266V36.662ZM126.54 33.548C126.024 33.548 125.604 33.698 125.28 33.998C124.968 34.298 124.764 34.736 124.668 35.312H128.286C128.142 34.136 127.56 33.548 126.54 33.548ZM137.642 31.658C138.026 31.658 138.35 31.718 138.614 31.838L138.596 34.322C138.152 34.118 137.708 34.016 137.264 34.016C136.544 34.016 135.992 34.214 135.608 34.61C135.236 34.994 135.05 35.534 135.05 36.23V41H132.332V34.484C132.332 33.512 132.284 32.642 132.188 31.874H134.744L134.924 33.44C135.152 32.864 135.506 32.426 135.986 32.126C136.478 31.814 137.03 31.658 137.642 31.658ZM145.025 31.658C145.409 31.658 145.733 31.718 145.997 31.838L145.979 34.322C145.535 34.118 145.091 34.016 144.647 34.016C143.927 34.016 143.375 34.214 142.991 34.61C142.619 34.994 142.433 35.534 142.433 36.23V41H139.715V34.484C139.715 33.512 139.667 32.642 139.571 31.874H142.127L142.307 33.44C142.535 32.864 142.889 32.426 143.369 32.126C143.861 31.814 144.413 31.658 145.025 31.658ZM156.643 31.874L152.431 41.486C151.915 42.65 151.261 43.502 150.469 44.042C149.689 44.594 148.729 44.948 147.589 45.104L146.959 43.016C147.799 42.836 148.429 42.608 148.849 42.332C149.281 42.056 149.617 41.654 149.857 41.126L150.127 40.532L146.365 31.874H149.209L151.549 37.796L153.961 31.874H156.643Z" fill="#000A18"/>
</svg>
