<svg width="24" height="24" viewBox="0 0 24 24" fill="none" xmlns="http://www.w3.org/2000/svg">
<g clip-path="url(#clip0)">
<path d="M12.0028 6.86523C9.16693 6.86523 6.87109 9.16357 6.87109 11.9969C6.87109 14.8327 9.16943 17.1286 12.0028 17.1286C14.8386 17.1286 17.1344 14.8302 17.1344 11.9969C17.1344 9.16107 14.8361 6.86523 12.0028 6.86523ZM12.0028 15.3277C10.1619 15.3277 8.67193 13.8369 8.67193 11.9969C8.67193 10.1569 10.1628 8.66607 12.0028 8.66607C13.8428 8.66607 15.3336 10.1569 15.3336 11.9969C15.3344 13.8369 13.8436 15.3277 12.0028 15.3277Z" fill="#525862"/>
<path d="M16.1235 2.06282C14.2835 1.97699 9.72602 1.98116 7.88436 2.06282C6.26602 2.13866 4.83852 2.52949 3.68769 3.68032C1.76436 5.60366 2.01019 8.19532 2.01019 11.9962C2.01019 15.8862 1.79352 18.4178 3.68769 20.312C5.61852 22.242 8.24769 21.9895 12.0035 21.9895C15.8569 21.9895 17.1869 21.992 18.5494 21.4645C20.4019 20.7453 21.8002 19.0895 21.9369 16.1153C22.0235 14.2745 22.0185 9.71782 21.9369 7.87616C21.7719 4.36532 19.8877 2.23616 16.1235 2.06282ZM19.036 19.0395C17.7752 20.3003 16.026 20.1878 11.9794 20.1878C7.81269 20.1878 6.14186 20.2495 4.92269 19.027C3.51852 17.6295 3.77269 15.3853 3.77269 11.9828C3.77269 7.37865 3.30019 4.06282 7.92102 3.82616C8.98269 3.78866 9.29519 3.77616 11.9677 3.77616L12.0052 3.80116C16.446 3.80116 19.9302 3.33616 20.1394 7.95616C20.1869 9.01032 20.1977 9.32699 20.1977 11.9953C20.1969 16.1137 20.2752 17.7945 19.036 19.0395Z" fill="#525862"/>
<path d="M17.3378 7.86122C18.0001 7.86122 18.537 7.32433 18.537 6.66205C18.537 5.99977 18.0001 5.46289 17.3378 5.46289C16.6756 5.46289 16.1387 5.99977 16.1387 6.66205C16.1387 7.32433 16.6756 7.86122 17.3378 7.86122Z" fill="#525862"/>
</g>
<defs>
<clipPath id="clip0">
<rect width="20" height="20" fill="white" transform="translate(2 2)"/>
</clipPath>
</defs>
</svg>
