<svg width="24" height="24" viewBox="0 0 24 24" fill="none" xmlns="http://www.w3.org/2000/svg">
<path d="M22.1623 5.6569C21.3989 5.9946 20.5893 6.21638 19.7603 6.3149C20.634 5.79234 21.288 4.96992 21.6003 4.0009C20.7803 4.4889 19.8813 4.8309 18.9443 5.0159C18.3149 4.34248 17.4807 3.89587 16.5713 3.74549C15.6618 3.59511 14.7282 3.74939 13.9156 4.18436C13.1029 4.61932 12.4567 5.31059 12.0774 6.1507C11.6981 6.9908 11.607 7.93268 11.8183 8.8299C10.1554 8.74656 8.52863 8.31443 7.04358 7.56157C5.55854 6.80871 4.24842 5.75195 3.1983 4.4599C2.82659 5.09835 2.63125 5.82413 2.6323 6.5629C2.6323 8.0129 3.3703 9.2939 4.4923 10.0439C3.82831 10.023 3.17893 9.84368 2.5983 9.5209V9.5729C2.5985 10.5386 2.93267 11.4745 3.54414 12.222C4.15562 12.9694 5.00678 13.4824 5.9533 13.6739C5.33691 13.8409 4.6906 13.8656 4.0633 13.7459C4.33016 14.5771 4.8503 15.3041 5.55089 15.825C6.25147 16.3459 7.09742 16.6347 7.9703 16.6509C7.10278 17.3322 6.10947 17.8359 5.04718 18.1331C3.98488 18.4303 2.87442 18.5152 1.7793 18.3829C3.69099 19.6123 5.91639 20.265 8.1893 20.2629C15.8823 20.2629 20.0893 13.8899 20.0893 8.3629C20.0893 8.1829 20.0843 8.0009 20.0763 7.8229C20.8952 7.23107 21.6019 6.49792 22.1633 5.6579L22.1623 5.6569Z" fill="#525862"/>
</svg>
