<svg width="24" height="24" viewBox="0 0 24 24" fill="none" xmlns="http://www.w3.org/2000/svg">
<path d="M22.8586 7.31202C22.8586 5.55425 21.4362 4.14023 19.6786 4.14023C17.2978 4.03906 14.8697 4 12.3884 4H11.6149C9.13957 4 6.70723 4.03906 4.32646 4.14062C2.57312 4.14062 1.15067 5.56246 1.15067 7.32022C1.04324 8.71042 0.997683 10.101 1.00026 11.4916C0.995964 12.8822 1.04467 14.2741 1.14637 15.6673C1.14637 17.425 2.56882 18.8508 4.32216 18.8508C6.82326 18.9562 9.38882 19.0031 11.9974 18.9992C14.6102 19.007 17.1686 18.9575 19.6725 18.8508C21.4302 18.8508 22.8526 17.425 22.8526 15.6673C22.9558 14.2728 23.003 12.8822 22.9987 11.4877C23.0085 10.0971 22.9618 8.70521 22.8586 7.31202ZM9.89592 15.3235V7.64795L16.1272 11.4838L9.89592 15.3235Z" fill="#525862"/>
</svg>
